<svg xmlns="http://www.w3.org/2000/svg" viewBox="0 0 236.16 57.8"><defs><style>.cls-1{fill:#f5f5f5;}</style></defs><g id="Layer_2" data-name="Layer 2"><g id="Layer_1-2" data-name="Layer 1"><path class="cls-1" d="M3.86,15H26.79v2.4c-6.69.6-7.9,1.2-7.9,8.85V41.05c1.72-.17,3.7-1.55,6.19-3.95,4.8-4.55,10.56-10.39,14.51-14.86,2.58-2.92,2.32-4-1.38-4.55l-2.4-.26V15H56.68v2.4c-6.44.78-8.68,1.2-14.43,7.13C39.67,27.05,33,33.58,27.48,39,34,46.72,43.54,57.71,48,62.43s5.5,5.41,10.83,6v2.41H45.08c-6.61-7.47-13.56-15.8-21.38-24.91-2-2.4-3.43-2.57-4.81-2.49V59.77c0,7.47.78,8.07,7.9,8.67v2.41H3.86V68.44c7.05-.6,7.73-1.2,7.73-8.67V26.28c0-7.73-.6-8.33-7.73-8.85Z" transform="translate(-3.86 -14.25)"/><path class="cls-1" d="M90.34,71.88a6.27,6.27,0,0,1-4-1.63,8,8,0,0,1-2.06-3.87c-3.44,2.32-7.65,5.5-10.31,5.5A10.54,10.54,0,0,1,63.46,61.32c0-4.21,2.32-7,7-8.59,5.24-1.81,11.68-4,13.57-5.58V45.43c0-6.1-3.09-9.62-7.55-9.62a5,5,0,0,0-4,2c-.94,1.2-1.55,3.09-2.32,5.58a2.39,2.39,0,0,1-2.49,2,4.13,4.13,0,0,1-3.78-3.78c0-1.2,1.12-2.23,2.84-3.43,2.49-1.8,7.47-5,12.36-6a11.86,11.86,0,0,1,7.22,2.32c3,2.57,4.38,5.49,4.38,10V61c0,4,1.46,5.15,3,5.15a6.74,6.74,0,0,0,3.09-.94l.86,2.4ZM84.07,50.15c-1.89,1-6,2.75-8,3.61-3.27,1.46-5.24,3.09-5.24,6.27A6.24,6.24,0,0,0,77,66.64a11.37,11.37,0,0,0,7-3.09Z" transform="translate(-3.86 -14.25)"/><path class="cls-1" d="M121,70.85H101.25V68.44c5.41-.51,5.92-.94,5.92-6.52V44.05c0-5.66-.34-5.92-5.32-6.52V35.38A47.82,47.82,0,0,0,114,31.86v9.45c3-4.47,6.61-9.19,10.9-9.19,3.18,0,5,2,5,4.12A5.75,5.75,0,0,1,126.92,41a1.69,1.69,0,0,1-2.23-.17c-1.29-1.29-2.32-2.15-3.86-2.15-1.81,0-5,2.67-6.87,7V61.83c0,5.67.43,6.1,7,6.61Z" transform="translate(-3.86 -14.25)"/><path class="cls-1" d="M133.79,70.85V68.44c5.41-.51,6-.94,6-6.78V44c0-5.33-.26-5.67-5.41-6.53V35.38A56.4,56.4,0,0,0,146.59,32V61.66c0,5.84.6,6.27,6.18,6.78v2.41Zm8.94-47.32A4.7,4.7,0,0,1,138.17,19a4.64,4.64,0,0,1,4.64-4.73A4.49,4.49,0,0,1,147.19,19,4.56,4.56,0,0,1,142.73,23.53Z" transform="translate(-3.86 -14.25)"/><path class="cls-1" d="M204.3,70.85V68.44c5.07-.51,5.67-.86,5.67-6.87V47.23c0-6.1-2.06-10-7.39-10-3.26,0-6.27,1.8-9.53,4.47a36.88,36.88,0,0,1,.26,3.69V62.09c0,5.41.77,5.84,5.49,6.35v2.41H180.43V68.44c5.32-.51,6.09-.86,6.09-6.52V47.15c0-6.36-2-9.88-7.21-9.88-3.44,0-6.79,2.32-9.45,4.47V61.92c0,5.66.6,6,5.5,6.52v2.41H156.9V68.44c5.66-.51,6.18-.86,6.18-6.52V44.14c0-5.5-.35-5.84-5.15-6.7V35.29a45.93,45.93,0,0,0,11.93-3.43v7a59.55,59.55,0,0,1,6.36-4.47A11.66,11.66,0,0,1,183,32.12c4.12,0,7.64,2.57,9.36,7,2.41-1.89,4.64-3.35,6.79-4.81a13,13,0,0,1,6.78-2.23c6.7,0,10.82,4.81,10.82,13.22V61.92c0,5.75.52,6,5.41,6.52v2.41Z" transform="translate(-3.86 -14.25)"/><path class="cls-1" d="M234.61,72.05c-3.09,0-5.24-2.23-5.24-5.5a5.21,5.21,0,0,1,5.24-5.49A5.35,5.35,0,0,1,240,66.55,5.25,5.25,0,0,1,234.61,72.05Z" transform="translate(-3.86 -14.25)"/></g></g></svg>